<svg xmlns="http://www.w3.org/2000/svg" viewBox="0 0 512 512"><title>Muscular_Bodybuilder</title><g id="artwork"><g id="_04_muscular_bodybuilder" data-name="04_muscular_bodybuilder"><path d="M274.34,362.53H239.05c-22.45,0-40.71,23.72-40.71,52.88v31.26a195.61,195.61,0,0,0,116.72.14v-31.4C315.06,386.25,296.79,362.53,274.34,362.53Z" style="fill:#f4b4b1"/><path d="M214,136.32c0-13.68,3.48-24.82,16.46-24.82h50.87c13,0,17.53,11.14,17.53,24.82v4.9h17.24v-37.3c0-24.28-19.25-44-42.92-44H236.51c-23.66,0-45,19.75-45,44v37.3H214Z" style="fill:#3d5890"/><path d="M281.06,59.89a41.68,41.68,0,0,1,11,10.11c3.94,5.25,5.79,9.36,7.57,16.77C304,105.07,303,135,303,135h11.35V94.69S307.85,63.47,281.06,59.89Z" style="fill:#304e82"/><path d="M262.84,367.79H235.06C217.38,367.79,203,390,203,417.35v29.29a130.65,130.65,0,0,0,91.88.13V417.35C294.89,390,280.51,367.79,262.84,367.79Z" style="fill:#e08476"/><path d="M207.83,179.24c0,24.49,36.22,38.61,47.73,38.61,11.88,0,47.73-13.69,47.73-38.61V166.46h6a9.37,9.37,0,0,0,9.35-9.35,10,10,0,0,0-10-10H291.11V130.48a10.76,10.76,0,0,0-10.74-10.75H231.18a10.76,10.76,0,0,0-10.74,10.75v16.68h-18a10,10,0,0,0-9.95,10,9.36,9.36,0,0,0,9.34,9.35h6Zm41.72-7.34c.1.16,2.47,3.92,6.42,3.94h0c4,0,6.35-3.78,6.45-4l10.26,6.23c-.61,1-6.2,9.72-16.71,9.72h-.09c-10.45-.05-16-8.73-16.62-9.72Z" style="fill:#f4b4b1"/><path d="M491,195.82C483.65,126.65,425,85,424.36,84.6l-.34-.25c-.92-.72-23.08-17.65-55.78-.4a24.58,24.58,0,0,0,6.61,26.89l.85.76a13.9,13.9,0,0,0,9.2,3.54H385c25.16-.15,31.41-13.81,31.46-14l11.12,4.52c-.19.48-3,7.06-11.27,12.8l11.78,14.55.13,1.89c3.26,46.93,19.71,52.56,24.67,53.17A34.48,34.48,0,0,1,473,197.88l-8.48,8.49A22.47,22.47,0,0,0,451.42,200a26.12,26.12,0,0,1-10-3.48l-6.88,2.84a38.52,38.52,0,0,1-18.19,3c-11.13-1-26,3.1-33.56,27.78l-11.47-3.52a73.61,73.61,0,0,1,4.49-11.34c-22.52.16-35,8.32-41.57,15.57a44.79,44.79,0,0,1-32.92,14.84h-1.37v-12h1.37a31.18,31.18,0,0,0,12-2.45c-6.95-3.05-13.83-8.42-17.47-17.17-13.5,10.39-30.72,15.8-40.3,15.8s-26.64-5.36-40.11-15.65c-3.64,8.65-10.48,14-17.39,17a31.43,31.43,0,0,0,12.65,2.71h1.37v12h-1.37a44.79,44.79,0,0,1-32.92-14.84c-6.61-7.26-19.06-15.42-41.58-15.58a73.74,73.74,0,0,1,4.5,11.38l-11.47,3.52c-7.58-24.68-22.43-28.73-33.56-27.78a38.63,38.63,0,0,1-18.19-3l-6.91-2.86a26.26,26.26,0,0,1-10,3.46,22.47,22.47,0,0,0-13.11,6.34L39,198.12a34.48,34.48,0,0,1,20.14-9.76c5-.61,21.41-6.24,24.67-53.17l.13-1.88,11.78-14.56C87.43,113,84.64,106.44,84.44,106L90,103.7l5.52-2.35c.25.57,6.45,13.88,31.5,14a13.64,13.64,0,0,0,9.28-3.54l.85-.75a24.59,24.59,0,0,0,6.61-26.9c-32.7-17.25-54.87-.32-55.81.43l-.32.23c-.58.41-59.28,42-66.58,111.21-.15,1.42-.37,2.89-.66,4.51-.95,5.17,3.34,9.33,12.07,11.71l3.13.86,1,3.09c.15.45,15.41,46.45,49.24,63.61,14.89,7.55,31.45,8.42,49.2,2.57l3.75,11.4a92.64,92.64,0,0,1-13.12,3.3c-1.5,17.12,6.2,30,13.2,38,14.42,16.43,24.56,34.68,30.16,54.22,3.55,12.42,5.73,32.72,6.49,40.76,5.06,2.45,10.24,4.65,15.5,6.63V413.65c0-31.9,21.83-57.86,48.66-57.86h31.78c26.84,0,48.67,26,48.67,57.86v23.22c5.93-2.21,11.29-4.55,16-6.84.06-17.3,3.86-30.49,6.43-39.42l.43-1.52c5.6-19.55,15.74-37.79,30.16-54.22,4.84-5.52,11-14.58,12.84-26.4a48.39,48.39,0,0,0,.37-11.61,89.8,89.8,0,0,1-13.13-3.3L377,282.17c17.77,5.85,34.34,5,49.25-2.6,33.89-17.22,49-63.12,49.19-63.59l1-3.09,3.13-.85c8.73-2.38,13-6.54,12.07-11.72C491.32,198.71,491.1,197.23,491,195.82ZM101.83,264.53A42.4,42.4,0,0,1,80.53,259c-19.85-11.29-26.16-35.75-26.42-36.79l5.82-1.45,5.81-1.47c.06.21,5.41,20.62,20.78,29.32,7.94,4.49,17.44,5.13,28.24,1.89L118.21,262A57,57,0,0,1,101.83,264.53Zm210.45,37.2a7.71,7.71,0,1,1-7.71,7.71A7.71,7.71,0,0,1,312.28,301.73Zm-109.41,0a7.71,7.71,0,1,1-7.7,7.71A7.71,7.71,0,0,1,202.87,301.73Zm171.8-29.85A22.41,22.41,0,0,0,358,284.39L339.5,325.15a25.59,25.59,0,0,1-23.25,15h-28.7c-10.92,0-27.48-6.86-32-17.87-4.35,11.16-20.52,18.11-31.14,18.11h-28.7a25.6,25.6,0,0,1-23.25-15L154,284.63a22.41,22.41,0,0,0-16.65-12.51,33.34,33.34,0,0,1-13.5-5.68l7.53-9.35,0,0a22.41,22.41,0,0,0,8.1,3.24,34.35,34.35,0,0,1,25.47,19.36l18.52,40.76a13.57,13.57,0,0,0,12.33,7.94h28.7c7.56,0,19.29-5.85,20.2-11.31l5-29.94,5.65.94,6.19-1,5,29.94c.9,5.39,13.14,11.16,21.08,11.16h28.7a13.56,13.56,0,0,0,12.32-7.94l18.52-40.76a34.39,34.39,0,0,1,25.48-19.36,22.17,22.17,0,0,0,8.1-3.25l7.49,9.38A33.27,33.27,0,0,1,374.67,271.88Zm55.92-12.61a42.37,42.37,0,0,1-21.3,5.55,57,57,0,0,1-16.38-2.56l3.45-11.5c10.8,3.24,20.3,2.61,28.24-1.89,15.38-8.7,20.73-29.11,20.78-29.31L457,222.48C456.76,223.51,450.45,248,430.59,259.27Z" style="fill:#f4b4b1"/><path d="M399.38,340.52a144.83,144.83,0,0,0-25.92,41.85l11.15,4.44a132.81,132.81,0,0,1,23.8-38.37c5.88-6.72,13.38-17.8,15.67-32.47l-11.85-1.85C410.38,326,404.23,335,399.38,340.52Z" style="fill:#122546"/><path d="M368.8,396.26c-2.35,8.14-5.56,19.28-6.28,33.78l12,.6c.66-13.11,3.53-23.06,5.83-31.06l.44-1.53-11.54-3.31Z" style="fill:#122546"/><path d="M86.52,248.59c-15.37-8.7-20.72-29.11-20.78-29.32l-5.81,1.47-5.82,1.45c.26,1,6.57,25.5,26.42,36.79a42.4,42.4,0,0,0,21.3,5.55A57,57,0,0,0,118.21,262l-3.45-11.49C104,253.72,94.46,253.08,86.52,248.59Z" style="fill:#e08476"/><path d="M424.6,248.87c-7.94,4.5-17.44,5.13-28.24,1.89l-3.45,11.5a57,57,0,0,0,16.38,2.56,42.37,42.37,0,0,0,21.3-5.55C450.45,248,456.76,223.51,457,222.48l-11.64-2.92C445.33,219.76,440,240.17,424.6,248.87Z" style="fill:#e08476"/><path d="M502.89,194.56c-4.13-39.13-23.38-69.6-38.79-88.28-16-19.34-31-30.17-32.74-31.42-2.78-2.16-31-22.64-70.76-.42l-1.68.94-.82,1.75a36.62,36.62,0,0,0,8.78,42.68l.85.76a25.82,25.82,0,0,0,17.17,6.57h.16A63.38,63.38,0,0,0,405.29,124l11.08,13.69c2,25.84,8.25,41,15.15,50l-1.59.66a26.85,26.85,0,0,1-12.59,2.09,40.13,40.13,0,0,0-33.65,13.1c-31.47-2-48.88,9-58,18.9-5.28-.8-17.7-4.13-20-17.68,5.83-7.07,9.66-15.58,9.66-25.47V177.6a21.39,21.39,0,0,0,15.35-20.49A21.87,21.87,0,0,0,326,143.62V103.79c0-28.86-24-52.34-53.49-52.34h-35.4c-29.5,0-53.5,23.48-53.5,52.34v42.08a21.82,21.82,0,0,0-3.1,11.24,21.38,21.38,0,0,0,15.34,20.49v1.64c0,10,3.93,18.6,9.88,25.73-2.38,13.07-14.12,16.49-19.66,17.37-9.21-9.77-26.6-20.57-57.77-18.61a40.15,40.15,0,0,0-33.62-13.06,26.85,26.85,0,0,1-12.59-2.09l-1.61-.67c6.91-8.92,13.13-24.12,15.17-50l11.08-13.69a63.38,63.38,0,0,0,20.23,3.15,25.9,25.9,0,0,0,17.33-6.57l.85-.76a36.62,36.62,0,0,0,8.78-42.68l-.82-1.74-1.68-.95c-39.73-22.21-68-1.73-70.76.42-1.78,1.25-16.76,12.08-32.73,31.43C32.49,125.2,13.24,155.67,9.11,194.8c-.11,1.12-.29,2.3-.53,3.62C7,207,11,217.63,26.23,222.91c4.17,11.27,20.77,50.66,54.12,67.6a70,70,0,0,0,32.13,7.75l1.06,0c-1.08,20.19,8,35.32,16.3,44.79,13.24,15.09,22.54,31.78,27.64,49.61,4.08,14.27,6.36,41.54,6.38,41.82l.27,3.34,3,1.52A196.87,196.87,0,0,0,254,460.54h1.77a197,197,0,0,0,89.14-21.48l3.38-1.73-.11-3.79c-.5-17.34,3.21-30.22,5.92-39.62l.44-1.54c5.1-17.83,14.4-34.52,27.64-49.61,5.89-6.71,13.39-17.79,15.67-32.46a58.94,58.94,0,0,0,.62-12.32l1.07,0a70.12,70.12,0,0,0,32.13-7.75c33.35-16.94,50-56.33,54.12-67.6,15.26-5.29,19.21-15.93,17.65-24.49C503.18,196.86,503,195.67,502.89,194.56Zm-307.3-90.77c0-22.24,18.62-40.34,41.5-40.34h35.4c22.88,0,41.49,18.1,41.49,40.34V135H303.11v-4.48a22.77,22.77,0,0,0-22.74-22.75H231.18a22.77,22.77,0,0,0-22.74,22.75V135H195.59Zm6.24,62.67a9.36,9.36,0,0,1-9.34-9.35,10,10,0,0,1,9.95-10h18V130.48a10.76,10.76,0,0,1,10.74-10.75h49.19a10.76,10.76,0,0,1,10.74,10.75v16.68h17.57a10,10,0,0,1,10,10,9.37,9.37,0,0,1-9.35,9.35h-6v12.78c0,24.92-35.85,38.61-47.73,38.61-11.51,0-47.73-14.12-47.73-38.61V166.46ZM308.12,440.89A182.8,182.8,0,0,1,203,440.77V413.65c0-25.29,16.44-45.86,36.66-45.86h31.78c20.22,0,36.67,20.57,36.67,45.86ZM479.54,212l-3.13.85-1,3.09c-.15.47-15.3,46.37-49.19,63.59-14.91,7.58-31.48,8.45-49.25,2.6l-3.75,11.39a89.8,89.8,0,0,0,13.13,3.3,48.39,48.39,0,0,1-.37,11.61c-1.85,11.82-8,20.88-12.84,26.4-14.42,16.43-24.56,34.67-30.16,54.22l-.43,1.52c-2.57,8.93-6.37,22.12-6.43,39.42-4.71,2.29-10.07,4.63-16,6.84V413.65c0-31.9-21.83-57.86-48.67-57.86H239.67c-26.83,0-48.66,26-48.66,57.86v23.07c-5.26-2-10.44-4.18-15.5-6.63-.76-8-2.94-28.34-6.49-40.76-5.6-19.54-15.74-37.79-30.16-54.22-7-8-14.7-20.88-13.2-38a92.64,92.64,0,0,0,13.12-3.3L135,282.41c-17.75,5.85-34.31,5-49.2-2.57C52,262.68,36.74,216.68,36.59,216.23l-1-3.09-3.13-.86c-8.73-2.38-13-6.54-12.07-11.71.29-1.62.51-3.09.66-4.51,7.3-69.17,66-110.8,66.58-111.21l.32-.23c.94-.75,23.11-17.68,55.81-.43a24.59,24.59,0,0,1-6.61,26.9l-.85.75a13.64,13.64,0,0,1-9.28,3.54c-25-.15-31.25-13.46-31.5-14L90,103.7,84.44,106c.2.49,3,7.06,11.27,12.8L83.93,133.31l-.13,1.88c-3.26,46.93-19.71,52.56-24.67,53.17A34.48,34.48,0,0,0,39,198.12l8.48,8.49a22.47,22.47,0,0,1,13.11-6.34,26.26,26.26,0,0,0,10-3.46l6.91,2.86a38.63,38.63,0,0,0,18.19,3c11.13-1,26,3.1,33.56,27.78l11.47-3.52a73.74,73.74,0,0,0-4.5-11.38c22.52.16,35,8.32,41.58,15.58a44.79,44.79,0,0,0,32.92,14.84h1.37v-12h-1.37a31.43,31.43,0,0,1-12.65-2.71c6.91-3,13.75-8.36,17.39-17,13.47,10.29,30.58,15.65,40.11,15.65s26.8-5.41,40.3-15.8c3.64,8.75,10.52,14.12,17.47,17.17a31.18,31.18,0,0,1-12,2.45h-1.37v12h1.37a44.79,44.79,0,0,0,32.92-14.84c6.61-7.25,19.05-15.41,41.57-15.57a73.61,73.61,0,0,0-4.49,11.34l11.47,3.52c7.58-24.68,22.43-28.73,33.56-27.78a38.52,38.52,0,0,0,18.19-3l6.88-2.84a26.12,26.12,0,0,0,10,3.48,22.47,22.47,0,0,1,13.11,6.34l8.48-8.49a34.48,34.48,0,0,0-20.14-9.76c-5-.61-21.41-6.24-24.67-53.17l-.13-1.89-11.78-14.55c8.28-5.74,11.08-12.32,11.27-12.8l-11.12-4.52c-.05.14-6.3,13.8-31.46,14h-.08a13.9,13.9,0,0,1-9.2-3.54l-.85-.76A24.58,24.58,0,0,1,368.24,84c32.7-17.25,54.86-.32,55.78.4l.34.25C425,85,483.65,126.65,491,195.82c.15,1.41.37,2.89.66,4.5C492.55,205.5,488.27,209.66,479.54,212Z" style="fill:#122546"/><path d="M372.57,260.07a34.39,34.39,0,0,0-25.48,19.36l-18.52,40.76a13.56,13.56,0,0,1-12.32,7.94h-28.7c-7.94,0-20.18-5.77-21.08-11.16l-5-29.94-6.19,1-5.65-.94-5,29.94c-.91,5.46-12.64,11.31-20.2,11.31h-28.7a13.57,13.57,0,0,1-12.33-7.94L164.9,279.67a34.35,34.35,0,0,0-25.47-19.36,22.41,22.41,0,0,1-8.1-3.24l0,0-7.53,9.35a33.34,33.34,0,0,0,13.5,5.68A22.41,22.41,0,0,1,154,284.63L172.5,325.4a25.6,25.6,0,0,0,23.25,15h28.7c10.62,0,26.79-6.95,31.14-18.11,4.48,11,21,17.87,32,17.87h28.7a25.59,25.59,0,0,0,23.25-15L358,284.39a22.41,22.41,0,0,1,16.65-12.51,33.27,33.27,0,0,0,13.49-5.68l-7.49-9.38A22.17,22.17,0,0,1,372.57,260.07Z" style="fill:#122546"/><path d="M202.87,317.14a7.71,7.71,0,1,0-7.7-7.7A7.71,7.71,0,0,0,202.87,317.14Z" style="fill:#122546"/><path d="M312.28,317.14a7.71,7.71,0,1,0-7.71-7.7A7.7,7.7,0,0,0,312.28,317.14Z" style="fill:#122546"/><path d="M255.91,187.84H256c10.51,0,16.1-8.72,16.71-9.72l-10.26-6.23c-.1.17-2.49,4-6.45,4h0c-3.95,0-6.32-3.78-6.42-3.94l-10.26,6.22C239.89,179.11,245.46,187.79,255.91,187.84Z" style="fill:#122546"/></g></g></svg>